<svg xmlns="http://www.w3.org/2000/svg" viewBox="0 0 800 500">
<rect width="800" height="500" fill="#2c3442"/>
<g><rect x="100" y="120" width="46" height="120" fill="#ffffff"/><rect x="150" y="120" width="46" height="120" fill="#ffffff"/><rect x="200" y="120" width="46" height="120" fill="#ffffff"/><rect x="250" y="120" width="46" height="120" fill="#ffffff"/><rect x="300" y="120" width="46" height="120" fill="#ffffff"/><rect x="350" y="120" width="46" height="120" fill="#ffffff"/><rect x="400" y="120" width="46" height="120" fill="#ffffff"/><rect x="450" y="120" width="46" height="120" fill="#ffffff"/><rect x="500" y="120" width="46" height="120" fill="#ffffff"/><rect x="550" y="120" width="46" height="120" fill="#ffffff"/><rect x="600" y="120" width="46" height="120" fill="#ffffff"/><rect x="650" y="120" width="46" height="120" fill="#ffffff"/></g>
  <g><rect x="134" y="120" width="28" height="74" fill="#2c3442"/><rect x="184" y="120" width="28" height="74" fill="#2c3442"/><rect x="284" y="120" width="28" height="74" fill="#2c3442"/><rect x="334" y="120" width="28" height="74" fill="#2c3442"/><rect x="384" y="120" width="28" height="74" fill="#2c3442"/><rect x="484" y="120" width="28" height="74" fill="#2c3442"/><rect x="534" y="120" width="28" height="74" fill="#2c3442"/><rect x="634" y="120" width="28" height="74" fill="#2c3442"/></g>
  <g fill="none" stroke="#c5524e" stroke-width="4"><circle cx="400" cy="300" r="26"/><circle cx="400" cy="300" r="48" opacity=".55"/><circle cx="400" cy="300" r="70" opacity=".3"/></g>
<text x="48" y="408" font-family="Georgia, 'Times New Roman', serif" font-weight="bold" font-size="52" fill="#ffffff">in the pool</text>
<text x="48" y="448" font-family="Verdana, sans-serif" font-size="17" letter-spacing="4" fill="#c3c9d3">KENSUKE USHIO · CHAINSAW MAN OST</text>
</svg>