<svg xmlns="http://www.w3.org/2000/svg" viewBox="0 0 800 500">
<rect width="800" height="500" fill="#181c24"/>
<g fill="#46505f"><rect x="120" y="180" width="70" height="160"/><rect x="210" y="130" width="80" height="210"/><rect x="310" y="200" width="60" height="140"/><rect x="390" y="110" width="90" height="230"/><rect x="500" y="170" width="70" height="170"/><rect x="590" y="140" width="80" height="200"/></g>
  <g fill="#f5e2a8"><rect x="225" y="150" width="10" height="14"/><rect x="247" y="150" width="10" height="14"/><rect x="269" y="150" width="10" height="14"/><rect x="225" y="180" width="10" height="14"/><rect x="247" y="180" width="10" height="14"/><rect x="269" y="180" width="10" height="14"/><rect x="405" y="130" width="10" height="14"/><rect x="431" y="130" width="10" height="14"/><rect x="457" y="130" width="10" height="14"/><rect x="405" y="164" width="10" height="14"/><rect x="431" y="164" width="10" height="14"/><rect x="457" y="164" width="10" height="14"/></g>
  <rect x="100" y="340" width="600" height="5" fill="#c5524e"/>
<text x="48" y="408" font-family="Georgia, 'Times New Roman', serif" font-weight="bold" font-size="52" fill="#ffffff">Mafia II</text>
<text x="48" y="448" font-family="Verdana, sans-serif" font-size="17" letter-spacing="4" fill="#c3c9d3">2K CZECH · EMPIRE BAY · 2010</text>
</svg>